ply
format ascii 1.0
comment Created by Blender 2.91.2 - www.blender.org
element vertex 774
property float x
property float y
property float z
property float nx
property float ny
property float nz
element face 258
property list uchar uint vertex_indices
end_header
0.792379 -1.015861 0.752511 -0.592919 -0.733891 -0.331438
1.260647 -1.209688 0.343997 -0.592919 -0.733891 -0.331438
1.283254 -1.450046 0.835774 -0.592919 -0.733891 -0.331438
-0.083415 -0.817016 0.500543 -0.023337 -0.227379 -0.973527
-0.011577 -0.247796 0.365872 -0.023337 -0.227379 -0.973527
0.561535 -0.691140 0.455683 -0.023337 -0.227379 -0.973527
-0.260830 -0.448166 -1.521119 0.926926 0.176098 0.331356
-0.576978 -0.487065 -0.616063 0.926926 0.176098 0.331356
-0.299338 -0.924304 -1.160356 0.926926 0.176098 0.331356
0.561535 -0.691140 0.455683 -0.595161 -0.730074 -0.335820
1.260647 -1.209688 0.343997 -0.595161 -0.730074 -0.335820
0.792379 -1.015861 0.752511 -0.595161 -0.730074 -0.335820
-0.260511 -1.660152 -0.553666 0.895489 0.419037 -0.150026
-0.513826 -1.213060 -0.816906 0.895489 0.419037 -0.150026
-0.504055 -0.981664 -0.112271 0.895489 0.419037 -0.150026
-0.708230 0.128394 1.883838 -0.549984 -0.738265 -0.390491
-0.496382 0.196553 1.456601 -0.549984 -0.738265 -0.390491
-0.147288 0.006267 1.324679 -0.549984 -0.738265 -0.390491
0.680481 1.139557 -1.924965 -0.687026 -0.336913 0.643805
0.899332 1.403729 -1.553176 -0.687026 -0.336913 0.643805
0.627163 1.919269 -1.573827 -0.687026 -0.336913 0.643805
0.680481 1.139557 -1.924965 0.064362 0.017291 0.997777
0.855081 0.787136 -1.930120 0.064362 0.017291 0.997777
1.154503 0.880812 -1.951058 0.064362 0.017291 0.997777
1.422775 0.903058 -0.808773 -0.675278 -0.698376 0.237214
1.232696 1.222687 -0.408862 -0.675278 -0.698376 0.237214
1.201285 0.801949 -1.736961 -0.675278 -0.698376 0.237214
-0.589027 0.001840 -1.967036 -0.009979 -0.024890 0.999640
-0.757317 -0.666147 -1.985348 -0.009979 -0.024890 0.999640
-0.222136 -0.698258 -1.980805 -0.009979 -0.024890 0.999640
-0.159301 -1.498155 0.817728 0.217241 -0.413999 0.883975
-0.107440 -1.186515 0.950936 0.217241 -0.413999 0.883975
-1.450467 -1.234899 1.258331 0.217241 -0.413999 0.883975
0.440041 1.695017 -0.929509 0.193140 -0.974209 -0.116680
0.034196 1.509341 -0.051017 0.193140 -0.974209 -0.116680
-0.250896 1.499542 -0.441107 0.193140 -0.974209 -0.116680
-0.151766 -0.927202 -1.649349 0.888714 0.277503 -0.364937
-0.139857 -1.351116 -1.942695 0.888714 0.277503 -0.364937
-0.318356 -0.837496 -1.986823 0.888714 0.277503 -0.364937
-0.965760 -0.006901 -1.243625 0.746271 0.597434 0.293519
-0.821764 -0.381411 -0.847450 0.746271 0.597434 0.293519
-0.652925 -0.243778 -1.556864 0.746271 0.597434 0.293519
-0.026270 0.959218 -1.985001 0.883032 -0.200934 0.424122
-0.116633 1.754903 -1.419897 0.883032 -0.200934 0.424122
-0.183715 1.403715 -1.446612 0.883032 -0.200934 0.424122
0.927342 -1.097236 1.117742 -0.668072 -0.739554 0.082095
0.792379 -1.015861 0.752511 -0.668072 -0.739554 0.082095
1.283254 -1.450046 0.835774 -0.668072 -0.739554 0.082095
-0.546797 1.087497 -0.447307 0.559466 -0.293667 -0.775085
-0.588600 0.502534 -0.255848 0.559466 -0.293667 -0.775085
-0.880110 0.511955 -0.469833 0.559466 -0.293667 -0.775085
1.270887 -1.035402 -1.953432 -0.036552 0.031010 0.998850
1.176060 -0.576661 -1.971144 -0.036552 0.031010 0.998850
0.961033 -1.353884 -1.954884 -0.036552 0.031010 0.998850
0.268633 1.376647 -1.947372 0.030762 -0.580478 0.813694
0.627163 1.919269 -1.573827 0.030762 -0.580478 0.813694
0.176409 1.963437 -1.525277 0.030762 -0.580478 0.813694
-0.513826 -1.213060 -0.816906 0.868679 -0.060455 0.491672
-0.299338 -0.924304 -1.160356 0.868679 -0.060455 0.491672
-0.576978 -0.487065 -0.616063 0.868679 -0.060455 0.491672
-0.260511 -1.660152 -0.553666 0.347606 0.936243 -0.051179
0.073223 -1.753997 -0.003710 0.347606 0.936243 -0.051179
0.571260 -1.959606 -0.382368 0.347606 0.936243 -0.051179
0.561535 -0.691140 0.455683 -0.761501 0.065001 -0.644896
0.669321 -0.311419 0.366681 -0.761501 0.065001 -0.644896
1.087252 -0.533479 -0.149199 -0.761501 0.065001 -0.644896
-0.107440 -1.186515 0.950936 -0.160325 -0.938210 -0.306690
0.043262 -1.287427 1.180859 -0.160325 -0.938210 -0.306690
-1.494786 -1.164705 1.609462 -0.160325 -0.938210 -0.306690
0.679687 1.261873 0.229126 0.089538 -0.499795 -0.861503
0.403541 0.575651 0.598532 0.089538 -0.499795 -0.861503
-0.046809 0.613653 0.529680 0.089538 -0.499795 -0.861503
0.929172 -0.918552 0.147866 -0.836896 0.123825 -0.533172
1.185437 -1.337715 -0.351730 -0.836896 0.123825 -0.533172
1.004079 -1.463801 -0.096343 -0.836896 0.123825 -0.533172
1.089901 -0.661099 -1.702067 -0.471954 -0.125595 -0.872631
1.223236 -1.072044 -1.715034 -0.471954 -0.125595 -0.872631
0.860253 -0.928398 -1.539393 -0.471954 -0.125595 -0.872631
0.204679 -1.471634 -1.980826 0.302981 0.930825 -0.204371
-0.139857 -1.351116 -1.942695 0.302981 0.930825 -0.204371
0.183944 -1.415672 -1.756684 0.302981 0.930825 -0.204371
0.860253 -0.928398 -1.539393 0.107884 0.994130 0.008142
0.503153 -0.888465 -1.683521 0.107884 0.994130 0.008142
0.461204 -0.885754 -1.458683 0.107884 0.994130 0.008142
0.568471 -1.176193 -1.944338 -0.603309 0.456077 -0.654226
0.183944 -1.415672 -1.756684 -0.603309 0.456077 -0.654226
0.503153 -0.888465 -1.683521 -0.603309 0.456077 -0.654226
1.310826 -0.389534 -1.986493 0.428029 0.122886 0.895372
0.855081 0.787136 -1.930120 0.428029 0.122886 0.895372
1.002195 -0.262555 -1.856381 0.428029 0.122886 0.895372
1.232696 1.222687 -0.408862 -0.483465 -0.793158 -0.370353
0.679687 1.261873 0.229126 -0.483465 -0.793158 -0.370353
0.712685 1.600610 -0.539401 -0.483465 -0.793158 -0.370353
1.310826 -0.389534 -1.986493 0.327173 -0.159223 0.931454
1.002195 -0.262555 -1.856381 0.327173 -0.159223 0.931454
1.176060 -0.576661 -1.971144 0.327173 -0.159223 0.931454
-0.589027 0.001840 -1.967036 -0.885586 -0.464328 0.011719
-0.222136 -0.698258 -1.980805 -0.885586 -0.464328 0.011719
-0.356946 -0.438051 -1.858320 -0.885586 -0.464328 0.011719
-0.613551 1.057686 -1.548246 0.876315 -0.159891 0.454430
-0.965760 -0.006901 -1.243625 0.876315 -0.159891 0.454430
-0.589027 0.001840 -1.967036 0.876315 -0.159891 0.454430
0.961033 -1.353884 -1.954884 0.032270 0.011981 0.999407
1.176060 -0.576661 -1.971144 0.032270 0.011981 0.999407
0.568471 -1.176193 -1.944338 0.032270 0.011981 0.999407
1.185437 -1.337715 -0.351730 -0.711914 0.701718 0.027739
0.954033 -1.549413 -0.935308 -0.711914 0.701718 0.027739
0.571260 -1.959606 -0.382368 -0.711914 0.701718 0.027739
1.088731 -0.748298 -1.128512 -0.651475 0.520330 0.552120
0.794326 -0.940881 -1.294401 -0.651475 0.520330 0.552120
0.472695 -1.324505 -1.312375 -0.651475 0.520330 0.552120
1.088731 -0.748298 -1.128512 -0.589996 0.798412 0.120181
1.089901 -0.661099 -1.702067 -0.589996 0.798412 0.120181
0.794326 -0.940881 -1.294401 -0.589996 0.798412 0.120181
-0.513826 -1.213060 -0.816906 0.663557 0.314495 0.678811
-0.057605 -1.463609 -1.146795 0.663557 0.314495 0.678811
-0.299338 -0.924304 -1.160356 0.663557 0.314495 0.678811
-0.011577 -0.247796 0.365872 0.567754 0.176129 -0.804136
-0.433489 -0.323476 0.051409 0.567754 0.176129 -0.804136
-0.046809 0.613653 0.529680 0.567754 0.176129 -0.804136
1.232696 1.222687 -0.408862 -0.679265 -0.474781 -0.559627
0.892163 0.784540 0.376189 -0.679265 -0.474781 -0.559627
0.679687 1.261873 0.229126 -0.679265 -0.474781 -0.559627
0.929172 -0.918552 0.147866 -0.933133 0.122230 -0.338115
1.087252 -0.533479 -0.149199 -0.933133 0.122230 -0.338115
1.190355 -0.695990 -0.492494 -0.933133 0.122230 -0.338115
-0.250896 1.499542 -0.441107 0.606169 -0.786905 0.115494
-0.613551 1.057686 -1.548246 0.606169 -0.786905 0.115494
-0.183715 1.403715 -1.446612 0.606169 -0.786905 0.115494
0.125065 -1.174362 1.187097 0.651934 -0.437511 -0.619327
0.043262 -1.287427 1.180859 0.651934 -0.437511 -0.619327
-0.107440 -1.186515 0.950936 0.651934 -0.437511 -0.619327
-0.944246 -1.434132 1.680782 -0.245914 -0.684233 -0.686551
-1.494786 -1.164705 1.609462 -0.245914 -0.684233 -0.686551
0.043262 -1.287427 1.180859 -0.245914 -0.684233 -0.686551
1.283254 -1.450046 0.835774 -0.840358 -0.501219 -0.206344
1.260647 -1.209688 0.343997 -0.840358 -0.501219 -0.206344
1.428005 -1.393850 0.109751 -0.840358 -0.501219 -0.206344
-0.005060 -1.066279 0.927126 0.583187 -0.604125 -0.543071
0.125065 -1.174362 1.187097 0.583187 -0.604125 -0.543071
-0.107440 -1.186515 0.950936 0.583187 -0.604125 -0.543071
0.611265 -2.010870 0.453432 0.189517 0.904358 -0.382387
0.042337 -1.916033 0.395755 0.189517 0.904358 -0.382387
-0.026048 -1.602760 1.102764 0.189517 0.904358 -0.382387
1.197036 -1.645708 0.003596 -0.757937 0.542209 0.362686
1.406762 -1.718046 0.550026 -0.757937 0.542209 0.362686
1.428005 -1.393850 0.109751 -0.757937 0.542209 0.362686
0.073223 -1.753997 -0.003710 0.849782 0.462322 0.253236
-0.226710 -1.298738 0.171624 0.849782 0.462322 0.253236
0.042337 -1.916033 0.395755 0.849782 0.462322 0.253236
1.232696 1.222687 -0.408862 -0.895305 -0.086949 -0.436885
1.190373 0.495198 -0.177344 -0.895305 -0.086949 -0.436885
0.892163 0.784540 0.376189 -0.895305 -0.086949 -0.436885
0.626003 -1.782639 -0.001501 -0.102465 0.393289 0.913687
1.197036 -1.645708 0.003596 -0.102465 0.393289 0.913687
1.004079 -1.463801 -0.096343 -0.102465 0.393289 0.913687
1.089901 -0.661099 -1.702067 -0.704261 0.709936 -0.002725
1.483516 -0.271131 -1.832342 -0.704261 0.709936 -0.002725
1.176060 -0.576661 -1.971144 -0.704261 0.709936 -0.002725
1.002195 -0.262555 -1.856381 -0.105893 -0.392435 0.913664
0.419656 -0.281788 -1.932158 -0.105893 -0.392435 0.913664
1.176060 -0.576661 -1.971144 -0.105893 -0.392435 0.913664
0.183207 1.951013 -0.989800 0.001610 -0.999729 -0.023216
0.176409 1.963437 -1.525277 0.001610 -0.999729 -0.023216
0.705588 1.953002 -1.039233 0.001610 -0.999729 -0.023216
0.571260 -1.959606 -0.382368 0.291926 0.932503 0.212644
0.329530 -1.760867 -0.922039 0.291926 0.932503 0.212644
-0.260511 -1.660152 -0.553666 0.291926 0.932503 0.212644
-0.821764 -0.381411 -0.847450 0.193230 0.953575 0.230991
-0.576978 -0.487065 -0.616063 0.193230 0.953575 0.230991
-0.652925 -0.243778 -1.556864 0.193230 0.953575 0.230991
0.472695 -1.324505 -1.312375 0.064027 0.653588 0.754138
-0.057605 -1.463609 -1.146795 0.064027 0.653588 0.754138
0.329530 -1.760867 -0.922039 0.064027 0.653588 0.754138
-0.620446 -0.114768 -0.316294 0.913645 0.238684 -0.329062
-0.433489 -0.323476 0.051409 0.913645 0.238684 -0.329062
-0.513826 -1.213060 -0.816906 0.913645 0.238684 -0.329062
-0.222136 -0.698258 -1.980805 -0.010633 -0.035846 0.999301
-0.757317 -0.666147 -1.985348 -0.010633 -0.035846 0.999301
-0.318356 -0.837496 -1.986823 -0.010633 -0.035846 0.999301
0.106674 -1.092910 -1.578010 0.512532 0.498304 -0.699288
-0.139857 -1.351116 -1.942695 0.512532 0.498304 -0.699288
-0.151766 -0.927202 -1.649349 0.512532 0.498304 -0.699288
0.374054 -1.010777 1.188147 -0.196513 -0.820760 -0.536411
0.346811 -0.886430 1.007864 -0.196513 -0.820760 -0.536411
0.927342 -1.097236 1.117742 -0.196513 -0.820760 -0.536411
0.866035 -1.237701 -1.717064 0.551068 0.625636 -0.552181
0.568471 -1.176193 -1.944338 0.551068 0.625636 -0.552181
0.503153 -0.888465 -1.683521 0.551068 0.625636 -0.552181
-0.046809 0.613653 0.529680 0.164064 0.190746 -0.967832
0.403541 0.575651 0.598532 0.164064 0.190746 -0.967832
-0.011577 -0.247796 0.365872 0.164064 0.190746 -0.967832
-0.546797 1.087497 -0.447307 0.812038 -0.582644 -0.033460
-0.613551 1.057686 -1.548246 0.812038 -0.582644 -0.033460
-0.250896 1.499542 -0.441107 0.812038 -0.582644 -0.033460
-0.183715 1.403715 -1.446612 0.342900 -0.932696 0.111798
0.440041 1.695017 -0.929509 0.342900 -0.932696 0.111798
-0.250896 1.499542 -0.441107 0.342900 -0.932696 0.111798
1.492753 0.385832 -1.392914 -0.693641 0.103523 0.712843
1.201285 0.801949 -1.736961 -0.693641 0.103523 0.712843
1.297332 -0.011845 -1.525319 -0.693641 0.103523 0.712843
1.190373 0.495198 -0.177344 -0.537317 -0.227215 -0.812197
1.232696 1.222687 -0.408862 -0.537317 -0.227215 -0.812197
1.379957 0.558650 -0.320516 -0.537317 -0.227215 -0.812197
-0.757317 -0.666147 -1.985348 0.278752 0.719580 -0.636005
-0.260830 -0.448166 -1.521119 0.278752 0.719580 -0.636005
-0.318356 -0.837496 -1.986823 0.278752 0.719580 -0.636005
-0.026048 -1.602760 1.102764 0.459166 0.327224 0.825888
-1.450449 -1.356758 1.797216 0.459166 0.327224 0.825888
-1.209432 -1.594155 1.757277 0.459166 0.327224 0.825888
0.129408 -0.867153 0.823486 0.068831 -0.480034 0.874546
-0.147288 0.006267 1.324679 0.068831 -0.480034 0.874546
-0.496382 0.196553 1.456601 0.068831 -0.480034 0.874546
0.403541 0.575651 0.598532 -0.242201 -0.382520 -0.891637
0.679687 1.261873 0.229126 -0.242201 -0.382520 -0.891637
0.892163 0.784540 0.376189 -0.242201 -0.382520 -0.891637
-0.139857 -1.351116 -1.942695 0.503028 0.507640 -0.699474
0.106674 -1.092910 -1.578010 0.503028 0.507640 -0.699474
0.183944 -1.415672 -1.756684 0.503028 0.507640 -0.699474
-0.944246 -1.434132 1.680782 -0.234389 -0.074900 -0.969253
-1.209432 -1.594155 1.757277 -0.234389 -0.074900 -0.969253
-1.450449 -1.356758 1.797216 -0.234389 -0.074900 -0.969253
1.522328 -0.158240 -0.576029 -0.566453 0.783616 0.255104
1.297332 -0.011845 -1.525319 -0.566453 0.783616 0.255104
1.137892 -0.390686 -0.715645 -0.566453 0.783616 0.255104
0.429326 -1.942948 1.068461 0.158729 0.307092 -0.938349
-0.026048 -1.602760 1.102764 0.158729 0.307092 -0.938349
0.705042 -1.859161 1.142521 0.158729 0.307092 -0.938349
0.860253 -0.928398 -1.539393 -0.798326 0.572900 -0.185636
0.794326 -0.940881 -1.294401 -0.798326 0.572900 -0.185636
1.089901 -0.661099 -1.702067 -0.798326 0.572900 -0.185636
0.561535 -0.691140 0.455683 -0.019667 -0.222863 -0.974652
-0.011577 -0.247796 0.365872 -0.019667 -0.222863 -0.974652
0.669321 -0.311419 0.366681 -0.019667 -0.222863 -0.974652
-0.356946 -0.438051 -1.858320 -0.280508 0.088223 0.955789
-0.445015 0.818075 -2.000112 -0.280508 0.088223 0.955789
-0.589027 0.001840 -1.967036 -0.280508 0.088223 0.955789
0.403541 0.575651 0.598532 -0.382099 -0.085624 -0.920146
0.892163 0.784540 0.376189 -0.382099 -0.085624 -0.920146
0.834272 0.222410 0.452538 -0.382099 -0.085624 -0.920146
0.866035 -1.237701 -1.717064 0.375370 0.466938 -0.800666
0.503153 -0.888465 -1.683521 0.375370 0.466938 -0.800666
0.860253 -0.928398 -1.539393 0.375370 0.466938 -0.800666
-0.944246 -1.434132 1.680782 -0.465741 0.307840 -0.829650
0.043262 -1.287427 1.180859 -0.465741 0.307840 -0.829650
-0.026048 -1.602760 1.102764 -0.465741 0.307840 -0.829650
0.669321 -0.311419 0.366681 0.025433 0.259917 -0.965296
-0.011577 -0.247796 0.365872 0.025433 0.259917 -0.965296
0.403541 0.575651 0.598532 0.025433 0.259917 -0.965296
0.183944 -1.415672 -1.756684 -0.596058 0.764337 -0.245974
0.568471 -1.176193 -1.944338 -0.596058 0.764337 -0.245974
0.204679 -1.471634 -1.980826 -0.596058 0.764337 -0.245974
-0.965760 -0.006901 -1.243625 0.993662 -0.105279 -0.039393
-0.880110 0.511955 -0.469833 0.993662 -0.105279 -0.039393
-0.954865 -0.176632 -0.515199 0.993662 -0.105279 -0.039393
0.374054 -1.010777 1.188147 -0.569602 -0.748511 0.339536
-0.368305 -0.075163 2.005349 -0.569602 -0.748511 0.339536
-0.708230 0.128394 1.883838 -0.569602 -0.748511 0.339536
1.087252 -0.533479 -0.149199 -0.666740 0.314678 -0.675600
0.669321 -0.311419 0.366681 -0.666740 0.314678 -0.675600
0.834272 0.222410 0.452538 -0.666740 0.314678 -0.675600
0.899332 1.403729 -1.553176 -0.594854 -0.802497 0.046331
1.232696 1.222687 -0.408862 -0.594854 -0.802497 0.046331
0.712685 1.600610 -0.539401 -0.594854 -0.802497 0.046331
0.461204 -0.885754 -1.458683 -0.386227 0.282675 0.878022
0.472695 -1.324505 -1.312375 -0.386227 0.282675 0.878022
0.794326 -0.940881 -1.294401 -0.386227 0.282675 0.878022
-0.620446 -0.114768 -0.316294 0.502290 0.058565 -0.862714
-0.954865 -0.176632 -0.515199 0.502290 0.058565 -0.862714
-0.588600 0.502534 -0.255848 0.502290 0.058565 -0.862714
0.929172 -0.918552 0.147866 -0.604242 -0.783957 -0.142489
1.260647 -1.209688 0.343997 -0.604242 -0.783957 -0.142489
0.561535 -0.691140 0.455683 -0.604242 -0.783957 -0.142489
0.472695 -1.324505 -1.312375 -0.218773 0.689450 0.690505
0.329530 -1.760867 -0.922039 -0.218773 0.689450 0.690505
0.954033 -1.549413 -0.935308 -0.218773 0.689450 0.690505
0.611265 -2.010870 0.453432 -0.123529 0.972529 -0.197300
0.705042 -1.859161 1.142521 -0.123529 0.972529 -0.197300
1.131440 -2.011680 0.123760 -0.123529 0.972529 -0.197300
1.297332 -0.011845 -1.525319 -0.907058 -0.290476 -0.304744
1.154503 0.880812 -1.951058 -0.907058 -0.290476 -0.304744
1.483516 -0.271131 -1.832342 -0.907058 -0.290476 -0.304744
-0.005060 -1.066279 0.927126 0.758986 -0.650720 -0.022454
-0.107440 -1.186515 0.950936 0.758986 -0.650720 -0.022454
-0.226710 -1.298738 0.171624 0.758986 -0.650720 -0.022454
1.002195 -0.262555 -1.856381 -0.054665 0.062345 0.996557
0.855081 0.787136 -1.930120 -0.054665 0.062345 0.996557
0.417241 0.311622 -1.924389 -0.054665 0.062345 0.996557
0.705042 -1.859161 1.142521 -0.242329 0.953906 -0.177032
0.611265 -2.010870 0.453432 -0.242329 0.953906 -0.177032
0.429326 -1.942948 1.068461 -0.242329 0.953906 -0.177032
1.201285 0.801949 -1.736961 -0.890147 -0.454876 0.026950
0.899332 1.403729 -1.553176 -0.890147 -0.454876 0.026950
1.154503 0.880812 -1.951058 -0.890147 -0.454876 0.026950
0.611265 -2.010870 0.453432 0.167658 0.985268 -0.033728
0.409882 -1.986102 0.175920 0.167658 0.985268 -0.033728
0.042337 -1.916033 0.395755 0.167658 0.985268 -0.033728
1.422775 0.903058 -0.808773 -0.937020 -0.241385 -0.252442
1.379957 0.558650 -0.320516 -0.937020 -0.241385 -0.252442
1.232696 1.222687 -0.408862 -0.937020 -0.241385 -0.252442
1.492753 0.385832 -1.392914 -0.945471 -0.291657 0.144984
1.575429 0.360365 -0.904997 -0.945471 -0.291657 0.144984
1.422775 0.903058 -0.808773 -0.945471 -0.291657 0.144984
1.201285 0.801949 -1.736961 -0.979614 -0.066300 0.189632
1.154503 0.880812 -1.951058 -0.979614 -0.066300 0.189632
1.297332 -0.011845 -1.525319 -0.979614 -0.066300 0.189632
0.571260 -1.959606 -0.382368 -0.660380 0.712792 -0.236274
0.626003 -1.782639 -0.001501 -0.660380 0.712792 -0.236274
1.004079 -1.463801 -0.096343 -0.660380 0.712792 -0.236274
-0.362392 0.782247 0.197742 0.705280 -0.541309 -0.457782
-0.546797 1.087497 -0.447307 0.705280 -0.541309 -0.457782
0.034196 1.509341 -0.051017 0.705280 -0.541309 -0.457782
1.176060 -0.576661 -1.971144 -0.886827 -0.276047 -0.370589
1.223236 -1.072044 -1.715034 -0.886827 -0.276047 -0.370589
1.089901 -0.661099 -1.702067 -0.886827 -0.276047 -0.370589
0.561535 -0.691140 0.455683 -0.477905 -0.753085 -0.452183
0.792379 -1.015861 0.752511 -0.477905 -0.753085 -0.452183
0.346811 -0.886430 1.007864 -0.477905 -0.753085 -0.452183
1.184191 -1.214885 -0.788830 -0.983088 -0.081874 0.163813
1.190355 -0.695990 -0.492494 -0.983088 -0.081874 0.163813
1.088731 -0.748298 -1.128512 -0.983088 -0.081874 0.163813
1.223236 -1.072044 -1.715034 -0.356611 0.775338 -0.521230
0.961033 -1.353884 -1.954884 -0.356611 0.775338 -0.521230
0.866035 -1.237701 -1.717064 -0.356611 0.775338 -0.521230
-0.159301 -1.498155 0.817728 0.142625 0.948886 0.281555
-1.238590 -1.413599 1.079486 0.142625 0.948886 0.281555
-0.026048 -1.602760 1.102764 0.142625 0.948886 0.281555
-0.362392 0.782247 0.197742 0.891961 0.002480 -0.452106
-0.433489 -0.323476 0.051409 0.891961 0.002480 -0.452106
-0.620446 -0.114768 -0.316294 0.891961 0.002480 -0.452106
-1.450449 -1.356758 1.797216 0.154668 0.987430 -0.032545
-0.026048 -1.602760 1.102764 0.154668 0.987430 -0.032545
-1.238590 -1.413599 1.079486 0.154668 0.987430 -0.032545
1.137892 -0.390686 -0.715645 -0.960251 0.037198 0.276648
1.190355 -0.695990 -0.492494 -0.960251 0.037198 0.276648
1.231764 -0.266933 -0.406454 -0.960251 0.037198 0.276648
1.406762 -1.718046 0.550026 -0.430016 0.848991 -0.307084
1.131440 -2.011680 0.123760 -0.430016 0.848991 -0.307084
0.705042 -1.859161 1.142521 -0.430016 0.848991 -0.307084
0.834272 0.222410 0.452538 -0.769292 -0.007543 -0.638853
0.892163 0.784540 0.376189 -0.769292 -0.007543 -0.638853
1.156654 0.405673 0.062169 -0.769292 -0.007543 -0.638853
1.184191 -1.214885 -0.788830 -0.999947 0.008833 0.005333
1.185437 -1.337715 -0.351730 -0.999947 0.008833 0.005333
1.190355 -0.695990 -0.492494 -0.999947 0.008833 0.005333
0.125065 -1.174362 1.187097 0.793594 0.589074 -0.152313
-0.005060 -1.066279 0.927126 0.793594 0.589074 -0.152313
-0.708230 0.128394 1.883838 0.793594 0.589074 -0.152313
0.855081 0.787136 -1.930120 0.018836 -0.005293 0.999809
0.680481 1.139557 -1.924965 0.018836 -0.005293 0.999809
0.417241 0.311622 -1.924389 0.018836 -0.005293 0.999809
1.283254 -1.450046 0.835774 -0.635760 0.406583 -0.656125
1.406762 -1.718046 0.550026 -0.635760 0.406583 -0.656125
0.705042 -1.859161 1.142521 -0.635760 0.406583 -0.656125
0.679687 1.261873 0.229126 0.147640 -0.547404 -0.823742
-0.046809 0.613653 0.529680 0.147640 -0.547404 -0.823742
0.034196 1.509341 -0.051017 0.147640 -0.547404 -0.823742
1.201285 0.801949 -1.736961 -0.857993 -0.483487 0.173460
1.232696 1.222687 -0.408862 -0.857993 -0.483487 0.173460
0.899332 1.403729 -1.553176 -0.857993 -0.483487 0.173460
-0.151766 -0.927202 -1.649349 0.885153 0.297331 -0.357909
-0.318356 -0.837496 -1.986823 0.885153 0.297331 -0.357909
-0.260830 -0.448166 -1.521119 0.885153 0.297331 -0.357909
1.575429 0.360365 -0.904997 -0.944717 -0.223141 -0.240248
1.379957 0.558650 -0.320516 -0.944717 -0.223141 -0.240248
1.422775 0.903058 -0.808773 -0.944717 -0.223141 -0.240248
1.406762 -1.718046 0.550026 -0.882722 0.281702 0.376093
1.197036 -1.645708 0.003596 -0.882722 0.281702 0.376093
1.131440 -2.011680 0.123760 -0.882722 0.281702 0.376093
-0.445015 0.818075 -2.000112 -0.054782 0.055792 0.996938
0.417241 0.311622 -1.924389 -0.054782 0.055792 0.996938
-0.026270 0.959218 -1.985001 -0.054782 0.055792 0.996938
0.374054 -1.010777 1.188147 -0.060626 0.098658 -0.993273
0.043262 -1.287427 1.180859 -0.060626 0.098658 -0.993273
0.125065 -1.174362 1.187097 -0.060626 0.098658 -0.993273
-0.213375 0.592467 -1.853161 0.394109 0.750338 0.530727
0.417241 0.311622 -1.924389 0.394109 0.750338 0.530727
-0.445015 0.818075 -2.000112 0.394109 0.750338 0.530727
0.042337 -1.916033 0.395755 0.383838 0.844967 0.372424
0.409882 -1.986102 0.175920 0.383838 0.844967 0.372424
0.073223 -1.753997 -0.003710 0.383838 0.844967 0.372424
-0.589027 0.001840 -1.967036 0.900377 -0.142193 0.411220
-0.445015 0.818075 -2.000112 0.900377 -0.142193 0.411220
-0.613551 1.057686 -1.548246 0.900377 -0.142193 0.411220
-0.821764 -0.381411 -0.847450 0.573635 0.779770 -0.250802
-0.954865 -0.176632 -0.515199 0.573635 0.779770 -0.250802
-0.576978 -0.487065 -0.616063 0.573635 0.779770 -0.250802
-0.613551 1.057686 -1.548246 0.952940 -0.289842 0.088871
-0.880110 0.511955 -0.469833 0.952940 -0.289842 0.088871
-0.965760 -0.006901 -1.243625 0.952940 -0.289842 0.088871
0.042337 -1.916033 0.395755 0.912098 0.408797 0.031012
-0.226710 -1.298738 0.171624 0.912098 0.408797 0.031012
-0.159301 -1.498155 0.817728 0.912098 0.408797 0.031012
-0.954865 -0.176632 -0.515199 0.591473 -0.011093 -0.806248
-0.880110 0.511955 -0.469833 0.591473 -0.011093 -0.806248
-0.588600 0.502534 -0.255848 0.591473 -0.011093 -0.806248
1.137892 -0.390686 -0.715645 -0.448315 0.868493 -0.211502
1.231764 -0.266933 -0.406454 -0.448315 0.868493 -0.211502
1.522328 -0.158240 -0.576029 -0.448315 0.868493 -0.211502
-1.238590 -1.413599 1.079486 0.710197 0.686670 0.155254
-1.450467 -1.234899 1.258331 0.710197 0.686670 0.155254
-1.450449 -1.356758 1.797216 0.710197 0.686670 0.155254
0.969316 -0.273596 -1.407627 -0.904612 -0.397804 0.153063
1.089901 -0.661099 -1.702067 -0.904612 -0.397804 0.153063
1.137892 -0.390686 -0.715645 -0.904612 -0.397804 0.153063
-0.147288 0.006267 1.324679 -0.572866 -0.536879 0.619343
0.129408 -0.867153 0.823486 -0.572866 -0.536879 0.619343
0.346811 -0.886430 1.007864 -0.572866 -0.536879 0.619343
-0.433489 -0.323476 0.051409 0.734739 0.042356 -0.677026
-0.362392 0.782247 0.197742 0.734739 0.042356 -0.677026
-0.046809 0.613653 0.529680 0.734739 0.042356 -0.677026
0.129408 -0.867153 0.823486 0.585426 -0.648540 -0.486490
-0.005060 -1.066279 0.927126 0.585426 -0.648540 -0.486490
-0.083415 -0.817016 0.500543 0.585426 -0.648540 -0.486490
1.087252 -0.533479 -0.149199 -0.989963 0.096413 -0.103329
1.156654 0.405673 0.062169 -0.989963 0.096413 -0.103329
1.190373 0.495198 -0.177344 -0.989963 0.096413 -0.103329
-0.588600 0.502534 -0.255848 0.895533 -0.002627 -0.444988
-0.362392 0.782247 0.197742 0.895533 -0.002627 -0.444988
-0.620446 -0.114768 -0.316294 0.895533 -0.002627 -0.444988
-0.222136 -0.698258 -1.980805 -0.034727 -0.019193 0.999213
-0.318356 -0.837496 -1.986823 -0.034727 -0.019193 0.999213
0.204679 -1.471634 -1.980826 -0.034727 -0.019193 0.999213
0.034196 1.509341 -0.051017 -0.169549 -0.899102 -0.403570
0.712685 1.600610 -0.539401 -0.169549 -0.899102 -0.403570
0.679687 1.261873 0.229126 -0.169549 -0.899102 -0.403570
0.268633 1.376647 -1.947372 -0.283117 -0.409853 0.867102
0.680481 1.139557 -1.924965 -0.283117 -0.409853 0.867102
0.627163 1.919269 -1.573827 -0.283117 -0.409853 0.867102
1.260647 -1.209688 0.343997 -0.132681 -0.823039 0.552270
1.004079 -1.463801 -0.096343 -0.132681 -0.823039 0.552270
1.428005 -1.393850 0.109751 -0.132681 -0.823039 0.552270
1.483516 -0.271131 -1.832342 -0.731624 0.558919 0.390303
1.310826 -0.389534 -1.986493 -0.731624 0.558919 0.390303
1.176060 -0.576661 -1.971144 -0.731624 0.558919 0.390303
0.627163 1.919269 -1.573827 -0.089156 -0.993133 0.075747
0.705588 1.953002 -1.039233 -0.089156 -0.993133 0.075747
0.176409 1.963437 -1.525277 -0.089156 -0.993133 0.075747
1.379957 0.558650 -0.320516 -0.953268 -0.086095 -0.289600
1.575429 0.360365 -0.904997 -0.953268 -0.086095 -0.289600
1.522328 -0.158240 -0.576029 -0.953268 -0.086095 -0.289600
0.183207 1.951013 -0.989800 0.573309 -0.818918 -0.026278
-0.116633 1.754903 -1.419897 0.573309 -0.818918 -0.026278
0.176409 1.963437 -1.525277 0.573309 -0.818918 -0.026278
0.472695 -1.324505 -1.312375 0.165111 0.428157 0.888493
0.140243 -1.078205 -1.369284 0.165111 0.428157 0.888493
-0.057605 -1.463609 -1.146795 0.165111 0.428157 0.888493
-0.445015 0.818075 -2.000112 0.254667 -0.811809 0.525463
-0.026270 0.959218 -1.985001 0.254667 -0.811809 0.525463
-0.613551 1.057686 -1.548246 0.254667 -0.811809 0.525463
-0.011577 -0.247796 0.365872 0.606847 -0.254713 -0.752899
-0.083415 -0.817016 0.500543 0.606847 -0.254713 -0.752899
-0.433489 -0.323476 0.051409 0.606847 -0.254713 -0.752899
-0.213375 0.592467 -1.853161 -0.489517 0.063846 0.869653
-0.445015 0.818075 -2.000112 -0.489517 0.063846 0.869653
-0.356946 -0.438051 -1.858320 -0.489517 0.063846 0.869653
-0.299338 -0.924304 -1.160356 0.373570 0.921378 0.107276
0.140243 -1.078205 -1.369284 0.373570 0.921378 0.107276
-0.151766 -0.927202 -1.649349 0.373570 0.921378 0.107276
-0.116633 1.754903 -1.419897 0.839237 -0.119962 -0.530369
0.183207 1.951013 -0.989800 0.839237 -0.119962 -0.530369
-0.183715 1.403715 -1.446612 0.839237 -0.119962 -0.530369
0.409882 -1.986102 0.175920 0.078695 0.606395 0.791260
1.131440 -2.011680 0.123760 0.078695 0.606395 0.791260
0.626003 -1.782639 -0.001501 0.078695 0.606395 0.791260
0.680481 1.139557 -1.924965 -0.075302 -0.036630 0.996488
0.268633 1.376647 -1.947372 -0.075302 -0.036630 0.996488
-0.026270 0.959218 -1.985001 -0.075302 -0.036630 0.996488
-0.083415 -0.817016 0.500543 0.791651 0.165992 -0.587993
-0.226710 -1.298738 0.171624 0.791651 0.165992 -0.587993
-0.504055 -0.981664 -0.112271 0.791651 0.165992 -0.587993
0.712685 1.600610 -0.539401 -0.025754 -0.975587 -0.218096
0.034196 1.509341 -0.051017 -0.025754 -0.975587 -0.218096
0.440041 1.695017 -0.929509 -0.025754 -0.975587 -0.218096
-0.944246 -1.434132 1.680782 -0.450495 0.354963 -0.819180
-0.026048 -1.602760 1.102764 -0.450495 0.354963 -0.819180
-1.209432 -1.594155 1.757277 -0.450495 0.354963 -0.819180
-0.546797 1.087497 -0.447307 0.865362 -0.499632 -0.038941
-0.880110 0.511955 -0.469833 0.865362 -0.499632 -0.038941
-0.613551 1.057686 -1.548246 0.865362 -0.499632 -0.038941
1.176060 -0.576661 -1.971144 -0.511240 0.547722 0.662295
0.204679 -1.471634 -1.980826 -0.511240 0.547722 0.662295
0.568471 -1.176193 -1.944338 -0.511240 0.547722 0.662295
1.428005 -1.393850 0.109751 -0.440512 0.025746 0.897377
1.004079 -1.463801 -0.096343 -0.440512 0.025746 0.897377
1.197036 -1.645708 0.003596 -0.440512 0.025746 0.897377
0.705588 1.953002 -1.039233 -0.088349 -0.311468 -0.946141
0.440041 1.695017 -0.929509 -0.088349 -0.311468 -0.946141
0.183207 1.951013 -0.989800 -0.088349 -0.311468 -0.946141
0.204679 -1.471634 -1.980826 0.156661 0.138462 0.977899
-0.318356 -0.837496 -1.986823 0.156661 0.138462 0.977899
-0.139857 -1.351116 -1.942695 0.156661 0.138462 0.977899
1.310826 -0.389534 -1.986493 0.075509 -0.018518 0.996973
1.154503 0.880812 -1.951058 0.075509 -0.018518 0.996973
0.855081 0.787136 -1.930120 0.075509 -0.018518 0.996973
0.794326 -0.940881 -1.294401 0.122545 0.988955 0.083367
0.860253 -0.928398 -1.539393 0.122545 0.988955 0.083367
0.461204 -0.885754 -1.458683 0.122545 0.988955 0.083367
-0.026048 -1.602760 1.102764 0.808452 0.563082 -0.171303
0.042337 -1.916033 0.395755 0.808452 0.563082 -0.171303
-0.159301 -1.498155 0.817728 0.808452 0.563082 -0.171303
0.403541 0.575651 0.598532 -0.159531 0.204618 -0.965754
0.834272 0.222410 0.452538 -0.159531 0.204618 -0.965754
0.669321 -0.311419 0.366681 -0.159531 0.204618 -0.965754
1.089901 -0.661099 -1.702067 -0.565780 0.379978 -0.731785
0.969316 -0.273596 -1.407627 -0.565780 0.379978 -0.731785
1.297332 -0.011845 -1.525319 -0.565780 0.379978 -0.731785
0.503153 -0.888465 -1.683521 -0.410397 0.364486 -0.835897
0.183944 -1.415672 -1.756684 -0.410397 0.364486 -0.835897
0.106674 -1.092910 -1.578010 -0.410397 0.364486 -0.835897
-0.504055 -0.981664 -0.112271 0.993412 -0.112248 0.023086
-0.513826 -1.213060 -0.816906 0.993412 -0.112248 0.023086
-0.433489 -0.323476 0.051409 0.993412 -0.112248 0.023086
-1.238590 -1.413599 1.079486 0.140807 -0.611949 0.778262
-0.159301 -1.498155 0.817728 0.140807 -0.611949 0.778262
-1.450467 -1.234899 1.258331 0.140807 -0.611949 0.778262
0.176409 1.963437 -1.525277 0.529003 -0.439187 0.726134
-0.026270 0.959218 -1.985001 0.529003 -0.439187 0.726134
0.268633 1.376647 -1.947372 0.529003 -0.439187 0.726134
0.705042 -1.859161 1.142521 -0.534286 0.128714 -0.835447
0.927342 -1.097236 1.117742 -0.534286 0.128714 -0.835447
1.283254 -1.450046 0.835774 -0.534286 0.128714 -0.835447
0.346811 -0.886430 1.007864 0.166232 -0.948201 -0.270707
-0.083415 -0.817016 0.500543 0.166232 -0.948201 -0.270707
0.561535 -0.691140 0.455683 0.166232 -0.948201 -0.270707
0.961033 -1.353884 -1.954884 -0.716201 0.696964 -0.036030
1.223236 -1.072044 -1.715034 -0.716201 0.696964 -0.036030
1.270887 -1.035402 -1.953432 -0.716201 0.696964 -0.036030
-0.368305 -0.075163 2.005349 -0.308581 0.474977 -0.824121
0.374054 -1.010777 1.188147 -0.308581 0.474977 -0.824121
0.125065 -1.174362 1.187097 -0.308581 0.474977 -0.824121
0.129408 -0.867153 0.823486 0.094794 -0.972349 -0.213429
-0.083415 -0.817016 0.500543 0.094794 -0.972349 -0.213429
0.346811 -0.886430 1.007864 0.094794 -0.972349 -0.213429
-0.368305 -0.075163 2.005349 0.568169 0.640047 -0.517228
0.125065 -1.174362 1.187097 0.568169 0.640047 -0.517228
-0.708230 0.128394 1.883838 0.568169 0.640047 -0.517228
1.260647 -1.209688 0.343997 -0.692472 -0.371992 0.618146
0.929172 -0.918552 0.147866 -0.692472 -0.371992 0.618146
1.004079 -1.463801 -0.096343 -0.692472 -0.371992 0.618146
0.899332 1.403729 -1.553176 -0.441022 -0.892750 0.092181
0.712685 1.600610 -0.539401 -0.441022 -0.892750 0.092181
0.440041 1.695017 -0.929509 -0.441022 -0.892750 0.092181
-0.260511 -1.660152 -0.553666 0.832447 0.479481 -0.277722
-0.504055 -0.981664 -0.112271 0.832447 0.479481 -0.277722
-0.226710 -1.298738 0.171624 0.832447 0.479481 -0.277722
-1.494786 -1.164705 1.609462 -0.259563 -0.705073 -0.659923
-0.944246 -1.434132 1.680782 -0.259563 -0.705073 -0.659923
-1.450449 -1.356758 1.797216 -0.259563 -0.705073 -0.659923
1.154503 0.880812 -1.951058 -0.327962 -0.668174 0.667820
0.899332 1.403729 -1.553176 -0.327962 -0.668174 0.667820
0.680481 1.139557 -1.924965 -0.327962 -0.668174 0.667820
-0.546797 1.087497 -0.447307 0.705543 -0.499101 -0.503098
-0.250896 1.499542 -0.441107 0.705543 -0.499101 -0.503098
0.034196 1.509341 -0.051017 0.705543 -0.499101 -0.503098
1.190373 0.495198 -0.177344 -0.550651 0.212744 -0.807170
1.522328 -0.158240 -0.576029 -0.550651 0.212744 -0.807170
1.231764 -0.266933 -0.406454 -0.550651 0.212744 -0.807170
0.961033 -1.353884 -1.954884 0.390546 0.879037 -0.273438
0.568471 -1.176193 -1.944338 0.390546 0.879037 -0.273438
0.866035 -1.237701 -1.717064 0.390546 0.879037 -0.273438
0.954033 -1.549413 -0.935308 -0.279667 0.853547 0.439595
0.329530 -1.760867 -0.922039 -0.279667 0.853547 0.439595
0.571260 -1.959606 -0.382368 -0.279667 0.853547 0.439595
-0.057605 -1.463609 -1.146795 0.395163 0.823071 0.407921
-0.260511 -1.660152 -0.553666 0.395163 0.823071 0.407921
0.329530 -1.760867 -0.922039 0.395163 0.823071 0.407921
0.929172 -0.918552 0.147866 -0.912775 -0.080830 -0.400386
1.190355 -0.695990 -0.492494 -0.912775 -0.080830 -0.400386
1.185437 -1.337715 -0.351730 -0.912775 -0.080830 -0.400386
0.571260 -1.959606 -0.382368 -0.699487 0.698299 -0.151974
1.004079 -1.463801 -0.096343 -0.699487 0.698299 -0.151974
1.185437 -1.337715 -0.351730 -0.699487 0.698299 -0.151974
0.043262 -1.287427 1.180859 0.127060 0.212046 -0.968965
0.705042 -1.859161 1.142521 0.127060 0.212046 -0.968965
-0.026048 -1.602760 1.102764 0.127060 0.212046 -0.968965
-0.576978 -0.487065 -0.616063 0.995890 0.071112 0.056092
-0.620446 -0.114768 -0.316294 0.995890 0.071112 0.056092
-0.513826 -1.213060 -0.816906 0.995890 0.071112 0.056092
0.969316 -0.273596 -1.407627 -0.540850 0.797704 0.266737
1.137892 -0.390686 -0.715645 -0.540850 0.797704 0.266737
1.297332 -0.011845 -1.525319 -0.540850 0.797704 0.266737
0.140243 -1.078205 -1.369284 -0.509742 0.860061 0.021389
0.461204 -0.885754 -1.458683 -0.509742 0.860061 0.021389
0.106674 -1.092910 -1.578010 -0.509742 0.860061 0.021389
-0.222136 -0.698258 -1.980805 -0.006590 -0.003665 0.999972
0.204679 -1.471634 -1.980826 -0.006590 -0.003665 0.999972
1.176060 -0.576661 -1.971144 -0.006590 -0.003665 0.999972
0.899332 1.403729 -1.553176 -0.647106 0.386594 -0.657114
0.440041 1.695017 -0.929509 -0.647106 0.386594 -0.657114
0.705588 1.953002 -1.039233 -0.647106 0.386594 -0.657114
-1.450449 -1.356758 1.797216 0.956816 0.283543 0.064086
-1.450467 -1.234899 1.258331 0.956816 0.283543 0.064086
-1.494786 -1.164705 1.609462 0.956816 0.283543 0.064086
0.073223 -1.753997 -0.003710 0.048500 0.903136 -0.426606
0.626003 -1.782639 -0.001501 0.048500 0.903136 -0.426606
0.571260 -1.959606 -0.382368 0.048500 0.903136 -0.426606
0.461204 -0.885754 -1.458683 0.073157 0.317217 0.945527
0.140243 -1.078205 -1.369284 0.073157 0.317217 0.945527
0.472695 -1.324505 -1.312375 0.073157 0.317217 0.945527
1.185437 -1.337715 -0.351730 -0.843808 0.516003 0.147408
1.184191 -1.214885 -0.788830 -0.843808 0.516003 0.147408
0.954033 -1.549413 -0.935308 -0.843808 0.516003 0.147408
-0.757317 -0.666147 -1.985348 0.969658 -0.244421 0.004693
-0.589027 0.001840 -1.967036 0.969658 -0.244421 0.004693
-0.652925 -0.243778 -1.556864 0.969658 -0.244421 0.004693
-0.513826 -1.213060 -0.816906 0.653197 0.623257 0.429982
-0.260511 -1.660152 -0.553666 0.653197 0.623257 0.429982
-0.057605 -1.463609 -1.146795 0.653197 0.623257 0.429982
-0.147288 0.006267 1.324679 -0.708065 -0.275685 -0.650109
0.374054 -1.010777 1.188147 -0.708065 -0.275685 -0.650109
-0.708230 0.128394 1.883838 -0.708065 -0.275685 -0.650109
1.297332 -0.011845 -1.525319 -0.929679 0.260444 0.260512
1.522328 -0.158240 -0.576029 -0.929679 0.260444 0.260512
1.575429 0.360365 -0.904997 -0.929679 0.260444 0.260512
1.483516 -0.271131 -1.832342 -0.624283 -0.098439 0.774971
1.154503 0.880812 -1.951058 -0.624283 -0.098439 0.774971
1.310826 -0.389534 -1.986493 -0.624283 -0.098439 0.774971
0.043262 -1.287427 1.180859 -0.017279 0.046972 -0.998747
0.374054 -1.010777 1.188147 -0.017279 0.046972 -0.998747
0.705042 -1.859161 1.142521 -0.017279 0.046972 -0.998747
0.419656 -0.281788 -1.932158 0.158546 -0.352073 0.922447
-0.356946 -0.438051 -1.858320 0.158546 -0.352073 0.922447
-0.222136 -0.698258 -1.980805 0.158546 -0.352073 0.922447
0.927342 -1.097236 1.117742 -0.125557 0.004369 -0.992077
0.705042 -1.859161 1.142521 -0.125557 0.004369 -0.992077
0.374054 -1.010777 1.188147 -0.125557 0.004369 -0.992077
0.429326 -1.942948 1.068461 0.600402 0.794634 0.089854
0.611265 -2.010870 0.453432 0.600402 0.794634 0.089854
-0.026048 -1.602760 1.102764 0.600402 0.794634 0.089854
1.483516 -0.271131 -1.832342 -0.609645 0.383615 -0.693667
1.089901 -0.661099 -1.702067 -0.609645 0.383615 -0.693667
1.297332 -0.011845 -1.525319 -0.609645 0.383615 -0.693667
-0.226710 -1.298738 0.171624 0.985090 -0.106014 -0.135497
-0.107440 -1.186515 0.950936 0.985090 -0.106014 -0.135497
-0.159301 -1.498155 0.817728 0.985090 -0.106014 -0.135497
-0.260830 -0.448166 -1.521119 0.439921 0.877407 0.191380
-0.652925 -0.243778 -1.556864 0.439921 0.877407 0.191380
-0.576978 -0.487065 -0.616063 0.439921 0.877407 0.191380
-0.356946 -0.438051 -1.858320 0.103670 -0.019421 0.994422
0.417241 0.311622 -1.924389 0.103670 -0.019421 0.994422
-0.213375 0.592467 -1.853161 0.103670 -0.019421 0.994422
0.929172 -0.918552 0.147866 -0.704316 -0.229182 -0.671873
0.561535 -0.691140 0.455683 -0.704316 -0.229182 -0.671873
1.087252 -0.533479 -0.149199 -0.704316 -0.229182 -0.671873
-0.183715 1.403715 -1.446612 0.375262 -0.657925 0.652926
-0.613551 1.057686 -1.548246 0.375262 -0.657925 0.652926
-0.026270 0.959218 -1.985001 0.375262 -0.657925 0.652926
0.461204 -0.885754 -1.458683 -0.476822 0.873351 -0.099492
0.503153 -0.888465 -1.683521 -0.476822 0.873351 -0.099492
0.106674 -1.092910 -1.578010 -0.476822 0.873351 -0.099492
-0.260511 -1.660152 -0.553666 0.722324 0.604939 -0.335106
-0.226710 -1.298738 0.171624 0.722324 0.604939 -0.335106
0.073223 -1.753997 -0.003710 0.722324 0.604939 -0.335106
1.190355 -0.695990 -0.492494 -0.922078 0.159683 -0.352524
1.087252 -0.533479 -0.149199 -0.922078 0.159683 -0.352524
1.231764 -0.266933 -0.406454 -0.922078 0.159683 -0.352524
-0.226710 -1.298738 0.171624 0.962061 -0.118315 -0.245847
-0.083415 -0.817016 0.500543 0.962061 -0.118315 -0.245847
-0.005060 -1.066279 0.927126 0.962061 -0.118315 -0.245847
1.176060 -0.576661 -1.971144 -0.953101 -0.205593 -0.222105
1.270887 -1.035402 -1.953432 -0.953101 -0.205593 -0.222105
1.223236 -1.072044 -1.715034 -0.953101 -0.205593 -0.222105
1.190355 -0.695990 -0.492494 -0.985516 -0.051178 0.161677
1.137892 -0.390686 -0.715645 -0.985516 -0.051178 0.161677
1.088731 -0.748298 -1.128512 -0.985516 -0.051178 0.161677
-0.151766 -0.927202 -1.649349 0.562418 0.813542 -0.147768
0.140243 -1.078205 -1.369284 0.562418 0.813542 -0.147768
0.106674 -1.092910 -1.578010 0.562418 0.813542 -0.147768
1.137892 -0.390686 -0.715645 -0.992874 0.118099 0.015930
1.089901 -0.661099 -1.702067 -0.992874 0.118099 0.015930
1.088731 -0.748298 -1.128512 -0.992874 0.118099 0.015930
-1.494786 -1.164705 1.609462 0.082129 -0.975242 0.205324
-1.450467 -1.234899 1.258331 0.082129 -0.975242 0.205324
-0.107440 -1.186515 0.950936 0.082129 -0.975242 0.205324
0.834272 0.222410 0.452538 -0.798799 0.187671 -0.571576
1.156654 0.405673 0.062169 -0.798799 0.187671 -0.571576
1.087252 -0.533479 -0.149199 -0.798799 0.187671 -0.571576
0.626003 -1.782639 -0.001501 -0.086273 0.324717 0.941868
1.131440 -2.011680 0.123760 -0.086273 0.324717 0.941868
1.197036 -1.645708 0.003596 -0.086273 0.324717 0.941868
-0.757317 -0.666147 -1.985348 0.381384 0.610199 -0.694408
-0.652925 -0.243778 -1.556864 0.381384 0.610199 -0.694408
-0.260830 -0.448166 -1.521119 0.381384 0.610199 -0.694408
1.088731 -0.748298 -1.128512 -0.506678 0.281700 0.814815
0.472695 -1.324505 -1.312375 -0.506678 0.281700 0.814815
0.954033 -1.549413 -0.935308 -0.506678 0.281700 0.814815
0.860253 -0.928398 -1.539393 -0.219136 0.482905 -0.847810
1.223236 -1.072044 -1.715034 -0.219136 0.482905 -0.847810
0.866035 -1.237701 -1.717064 -0.219136 0.482905 -0.847810
-0.954865 -0.176632 -0.515199 0.894715 0.437757 0.088620
-0.821764 -0.381411 -0.847450 0.894715 0.437757 0.088620
-0.965760 -0.006901 -1.243625 0.894715 0.437757 0.088620
1.231764 -0.266933 -0.406454 -0.901781 0.078773 -0.424955
1.087252 -0.533479 -0.149199 -0.901781 0.078773 -0.424955
1.190373 0.495198 -0.177344 -0.901781 0.078773 -0.424955
-0.260830 -0.448166 -1.521119 0.948221 0.139505 0.285334
-0.299338 -0.924304 -1.160356 0.948221 0.139505 0.285334
-0.151766 -0.927202 -1.649349 0.948221 0.139505 0.285334
1.422775 0.903058 -0.808773 -0.878234 -0.405373 0.253728
1.201285 0.801949 -1.736961 -0.878234 -0.405373 0.253728
1.492753 0.385832 -1.392914 -0.878234 -0.405373 0.253728
-0.005060 -1.066279 0.927126 0.876281 0.148797 0.458247
-0.496382 0.196553 1.456601 0.876281 0.148797 0.458247
-0.708230 0.128394 1.883838 0.876281 0.148797 0.458247
0.374054 -1.010777 1.188147 -0.886584 -0.432414 -0.164279
-0.147288 0.006267 1.324679 -0.886584 -0.432414 -0.164279
0.346811 -0.886430 1.007864 -0.886584 -0.432414 -0.164279
1.184191 -1.214885 -0.788830 -0.764584 0.269729 0.585370
1.088731 -0.748298 -1.128512 -0.764584 0.269729 0.585370
0.954033 -1.549413 -0.935308 -0.764584 0.269729 0.585370
1.297332 -0.011845 -1.525319 -0.905513 0.387161 0.173645
1.575429 0.360365 -0.904997 -0.905513 0.387161 0.173645
1.492753 0.385832 -1.392914 -0.905513 0.387161 0.173645
1.176060 -0.576661 -1.971144 0.003724 -0.121679 0.992563
0.419656 -0.281788 -1.932158 0.003724 -0.121679 0.992563
-0.222136 -0.698258 -1.980805 0.003724 -0.121679 0.992563
-0.652925 -0.243778 -1.556864 0.774737 0.481941 0.409286
-0.589027 0.001840 -1.967036 0.774737 0.481941 0.409286
-0.965760 -0.006901 -1.243625 0.774737 0.481941 0.409286
0.417241 0.311622 -1.924389 -0.128543 -0.013506 0.991612
0.419656 -0.281788 -1.932158 -0.128543 -0.013506 0.991612
1.002195 -0.262555 -1.856381 -0.128543 -0.013506 0.991612
0.034196 1.509341 -0.051017 0.481196 -0.507103 -0.715050
-0.046809 0.613653 0.529680 0.481196 -0.507103 -0.715050
-0.362392 0.782247 0.197742 0.481196 -0.507103 -0.715050
0.626003 -1.782639 -0.001501 0.030018 0.638628 0.768930
0.073223 -1.753997 -0.003710 0.030018 0.638628 0.768930
0.409882 -1.986102 0.175920 0.030018 0.638628 0.768930
0.440041 1.695017 -0.929509 0.509710 0.323638 -0.797154
-0.183715 1.403715 -1.446612 0.509710 0.323638 -0.797154
0.183207 1.951013 -0.989800 0.509710 0.323638 -0.797154
-0.433489 -0.323476 0.051409 0.816167 0.055524 -0.575141
-0.083415 -0.817016 0.500543 0.816167 0.055524 -0.575141
-0.504055 -0.981664 -0.112271 0.816167 0.055524 -0.575141
1.156654 0.405673 0.062169 -0.880070 -0.390666 -0.269919
0.892163 0.784540 0.376189 -0.880070 -0.390666 -0.269919
1.190373 0.495198 -0.177344 -0.880070 -0.390666 -0.269919
0.140243 -1.078205 -1.369284 0.483647 0.237965 0.842293
-0.299338 -0.924304 -1.160356 0.483647 0.237965 0.842293
-0.057605 -1.463609 -1.146795 0.483647 0.237965 0.842293
0.680481 1.139557 -1.924965 -0.092204 0.030008 0.995288
-0.026270 0.959218 -1.985001 -0.092204 0.030008 0.995288
0.417241 0.311622 -1.924389 -0.092204 0.030008 0.995288
0.129408 -0.867153 0.823486 0.660800 -0.056701 0.748418
-0.496382 0.196553 1.456601 0.660800 -0.056701 0.748418
-0.005060 -1.066279 0.927126 0.660800 -0.056701 0.748418
0.792379 -1.015861 0.752511 -0.324899 -0.941485 -0.089708
0.927342 -1.097236 1.117742 -0.324899 -0.941485 -0.089708
0.346811 -0.886430 1.007864 -0.324899 -0.941485 -0.089708
1.428005 -1.393850 0.109751 -0.953573 -0.218699 -0.207048
1.406762 -1.718046 0.550026 -0.953573 -0.218699 -0.207048
1.283254 -1.450046 0.835774 -0.953573 -0.218699 -0.207048
0.899332 1.403729 -1.553176 -0.875910 -0.456120 0.157278
0.705588 1.953002 -1.039233 -0.875910 -0.456120 0.157278
0.627163 1.919269 -1.573827 -0.875910 -0.456120 0.157278
1.131440 -2.011680 0.123760 0.039708 0.997396 0.060204
0.409882 -1.986102 0.175920 0.039708 0.997396 0.060204
0.611265 -2.010870 0.453432 0.039708 0.997396 0.060204
0.419656 -0.281788 -1.932158 0.097162 -0.012634 0.995188
0.417241 0.311622 -1.924389 0.097162 -0.012634 0.995188
-0.356946 -0.438051 -1.858320 0.097162 -0.012634 0.995188
-0.116633 1.754903 -1.419897 0.562540 -0.435313 0.702888
-0.026270 0.959218 -1.985001 0.562540 -0.435313 0.702888
0.176409 1.963437 -1.525277 0.562540 -0.435313 0.702888
1.190373 0.495198 -0.177344 -0.627083 0.148037 -0.764756
1.379957 0.558650 -0.320516 -0.627083 0.148037 -0.764756
1.522328 -0.158240 -0.576029 -0.627083 0.148037 -0.764756
-0.546797 1.087497 -0.447307 0.920094 -0.179672 -0.348059
-0.362392 0.782247 0.197742 0.920094 -0.179672 -0.348059
-0.588600 0.502534 -0.255848 0.920094 -0.179672 -0.348059
-0.576978 -0.487065 -0.616063 0.314665 0.617316 -0.721046
-0.954865 -0.176632 -0.515199 0.314665 0.617316 -0.721046
-0.620446 -0.114768 -0.316294 0.314665 0.617316 -0.721046
3 0 1 2
3 3 4 5
3 6 7 8
3 9 10 11
3 12 13 14
3 15 16 17
3 18 19 20
3 21 22 23
3 24 25 26
3 27 28 29
3 30 31 32
3 33 34 35
3 36 37 38
3 39 40 41
3 42 43 44
3 45 46 47
3 48 49 50
3 51 52 53
3 54 55 56
3 57 58 59
3 60 61 62
3 63 64 65
3 66 67 68
3 69 70 71
3 72 73 74
3 75 76 77
3 78 79 80
3 81 82 83
3 84 85 86
3 87 88 89
3 90 91 92
3 93 94 95
3 96 97 98
3 99 100 101
3 102 103 104
3 105 106 107
3 108 109 110
3 111 112 113
3 114 115 116
3 117 118 119
3 120 121 122
3 123 124 125
3 126 127 128
3 129 130 131
3 132 133 134
3 135 136 137
3 138 139 140
3 141 142 143
3 144 145 146
3 147 148 149
3 150 151 152
3 153 154 155
3 156 157 158
3 159 160 161
3 162 163 164
3 165 166 167
3 168 169 170
3 171 172 173
3 174 175 176
3 177 178 179
3 180 181 182
3 183 184 185
3 186 187 188
3 189 190 191
3 192 193 194
3 195 196 197
3 198 199 200
3 201 202 203
3 204 205 206
3 207 208 209
3 210 211 212
3 213 214 215
3 216 217 218
3 219 220 221
3 222 223 224
3 225 226 227
3 228 229 230
3 231 232 233
3 234 235 236
3 237 238 239
3 240 241 242
3 243 244 245
3 246 247 248
3 249 250 251
3 252 253 254
3 255 256 257
3 258 259 260
3 261 262 263
3 264 265 266
3 267 268 269
3 270 271 272
3 273 274 275
3 276 277 278
3 279 280 281
3 282 283 284
3 285 286 287
3 288 289 290
3 291 292 293
3 294 295 296
3 297 298 299
3 300 301 302
3 303 304 305
3 306 307 308
3 309 310 311
3 312 313 314
3 315 316 317
3 318 319 320
3 321 322 323
3 324 325 326
3 327 328 329
3 330 331 332
3 333 334 335
3 336 337 338
3 339 340 341
3 342 343 344
3 345 346 347
3 348 349 350
3 351 352 353
3 354 355 356
3 357 358 359
3 360 361 362
3 363 364 365
3 366 367 368
3 369 370 371
3 372 373 374
3 375 376 377
3 378 379 380
3 381 382 383
3 384 385 386
3 387 388 389
3 390 391 392
3 393 394 395
3 396 397 398
3 399 400 401
3 402 403 404
3 405 406 407
3 408 409 410
3 411 412 413
3 414 415 416
3 417 418 419
3 420 421 422
3 423 424 425
3 426 427 428
3 429 430 431
3 432 433 434
3 435 436 437
3 438 439 440
3 441 442 443
3 444 445 446
3 447 448 449
3 450 451 452
3 453 454 455
3 456 457 458
3 459 460 461
3 462 463 464
3 465 466 467
3 468 469 470
3 471 472 473
3 474 475 476
3 477 478 479
3 480 481 482
3 483 484 485
3 486 487 488
3 489 490 491
3 492 493 494
3 495 496 497
3 498 499 500
3 501 502 503
3 504 505 506
3 507 508 509
3 510 511 512
3 513 514 515
3 516 517 518
3 519 520 521
3 522 523 524
3 525 526 527
3 528 529 530
3 531 532 533
3 534 535 536
3 537 538 539
3 540 541 542
3 543 544 545
3 546 547 548
3 549 550 551
3 552 553 554
3 555 556 557
3 558 559 560
3 561 562 563
3 564 565 566
3 567 568 569
3 570 571 572
3 573 574 575
3 576 577 578
3 579 580 581
3 582 583 584
3 585 586 587
3 588 589 590
3 591 592 593
3 594 595 596
3 597 598 599
3 600 601 602
3 603 604 605
3 606 607 608
3 609 610 611
3 612 613 614
3 615 616 617
3 618 619 620
3 621 622 623
3 624 625 626
3 627 628 629
3 630 631 632
3 633 634 635
3 636 637 638
3 639 640 641
3 642 643 644
3 645 646 647
3 648 649 650
3 651 652 653
3 654 655 656
3 657 658 659
3 660 661 662
3 663 664 665
3 666 667 668
3 669 670 671
3 672 673 674
3 675 676 677
3 678 679 680
3 681 682 683
3 684 685 686
3 687 688 689
3 690 691 692
3 693 694 695
3 696 697 698
3 699 700 701
3 702 703 704
3 705 706 707
3 708 709 710
3 711 712 713
3 714 715 716
3 717 718 719
3 720 721 722
3 723 724 725
3 726 727 728
3 729 730 731
3 732 733 734
3 735 736 737
3 738 739 740
3 741 742 743
3 744 745 746
3 747 748 749
3 750 751 752
3 753 754 755
3 756 757 758
3 759 760 761
3 762 763 764
3 765 766 767
3 768 769 770
3 771 772 773
