ply
format ascii 1.0
comment Created by Blender 2.91.2 - www.blender.org
element vertex 192
property float x
property float y
property float z
property float nx
property float ny
property float nz
element face 64
property list uchar uint vertex_indices
end_header
0.160665 -0.897082 0.805930 -0.524632 -0.349827 -0.776133
-0.155493 0.425872 0.423342 -0.524632 -0.349827 -0.776133
0.769808 -0.666005 0.290023 -0.524632 -0.349827 -0.776133
0.769808 -0.666005 0.290023 -0.606548 -0.669829 -0.428285
1.608463 -1.524566 0.445069 -0.606548 -0.669829 -0.428285
0.471542 -0.956769 1.167184 -0.606548 -0.669829 -0.428285
-0.156246 -0.571692 -1.432340 0.671095 0.484627 -0.561041
0.120308 -1.517961 -1.918924 0.671095 0.484627 -0.561041
-0.621211 -0.513775 -1.938484 0.671095 0.484627 -0.561041
-0.186180 1.544672 -0.267273 0.370300 -0.033812 -0.928296
-0.664068 -0.312546 -0.390257 0.370300 -0.033812 -0.928296
-1.042560 -0.163690 -0.546661 0.370300 -0.033812 -0.928296
-0.460007 -1.468464 -0.752609 0.900962 0.023231 0.433275
-0.156246 -0.571692 -1.432340 0.900962 0.023231 0.433275
-0.664068 -0.312546 -0.390257 0.900962 0.023231 0.433275
0.769808 -0.666005 0.290023 -0.927611 -0.097795 -0.360519
1.218186 -1.239190 -0.708166 -0.927611 -0.097795 -0.360519
1.004079 -1.463801 -0.096343 -0.927611 -0.097795 -0.360519
1.196803 -0.578131 -1.931544 -0.602401 0.320089 -0.731202
0.727670 -1.198531 -1.816632 -0.602401 0.320089 -0.731202
0.590555 -0.849585 -1.550917 -0.602401 0.320089 -0.731202
0.727670 -1.198531 -1.816632 -0.156642 0.558656 -0.814473
0.120308 -1.517961 -1.918924 -0.156642 0.558656 -0.814473
0.590555 -0.849585 -1.550917 -0.156642 0.558656 -0.814473
1.533629 0.911198 -0.955826 -0.633595 -0.692651 -0.344662
0.848681 0.768445 0.590204 -0.633595 -0.692651 -0.344662
0.480618 1.832130 -0.870821 -0.633595 -0.692651 -0.344662
-0.350072 1.142031 -1.849742 0.824564 -0.164042 0.541465
-0.834985 -0.123234 -1.494622 0.824564 -0.164042 0.541465
-0.621211 -0.513775 -1.938484 0.824564 -0.164042 0.541465
1.218186 -1.239190 -0.708166 -0.524482 0.553859 0.646653
0.590555 -0.849585 -1.550917 -0.524482 0.553859 0.646653
0.236657 -1.568402 -1.222286 -0.524482 0.553859 0.646653
1.218186 -1.239190 -0.708166 -0.093931 0.875198 0.474559
1.196803 -0.578131 -1.931544 -0.093931 0.875198 0.474559
0.590555 -0.849585 -1.550917 -0.093931 0.875198 0.474559
-0.460007 -1.468464 -0.752609 0.554577 0.375150 0.742770
0.236657 -1.568402 -1.222286 0.554577 0.375150 0.742770
-0.156246 -0.571692 -1.432340 0.554577 0.375150 0.742770
1.533629 0.911198 -0.955826 -0.913721 -0.013969 -0.406102
1.343688 -0.295095 -0.486969 -0.913721 -0.013969 -0.406102
0.848681 0.768445 0.590204 -0.913721 -0.013969 -0.406102
0.362915 -1.985489 0.064791 -0.044771 0.344642 0.937666
1.121680 -1.990395 0.102823 -0.044771 0.344642 0.937666
1.004079 -1.463801 -0.096343 -0.044771 0.344642 0.937666
0.362915 -1.985489 0.064791 0.309924 0.912954 0.265447
0.236657 -1.568402 -1.222286 0.309924 0.912954 0.265447
-0.460007 -1.468464 -0.752609 0.309924 0.912954 0.265447
-1.042560 -0.163690 -0.546661 0.323688 0.939633 0.110979
-0.664068 -0.312546 -0.390257 0.323688 0.939633 0.110979
-0.834985 -0.123234 -1.494622 0.323688 0.939633 0.110979
-0.664068 -0.312546 -0.390257 0.922442 0.254010 -0.290825
-0.242533 -1.124381 0.237706 0.922442 0.254010 -0.290825
-0.460007 -1.468464 -0.752609 0.922442 0.254010 -0.290825
-0.350072 1.142031 -1.849742 0.510628 -0.844409 0.161966
0.480618 1.832130 -0.870821 0.510628 -0.844409 0.161966
-0.186180 1.544672 -0.267273 0.510628 -0.844409 0.161966
1.533629 0.911198 -0.955826 -0.865615 -0.084377 0.493550
0.996427 1.123519 -1.861701 -0.865615 -0.084377 0.493550
1.248311 -0.085419 -1.626614 -0.865615 -0.084377 0.493550
0.769808 -0.666005 0.290023 0.094220 0.198952 -0.975470
-0.155493 0.425872 0.423342 0.094220 0.198952 -0.975470
0.848681 0.768445 0.590204 0.094220 0.198952 -0.975470
0.996427 1.123519 -1.861701 -0.635432 -0.745225 0.202156
1.533629 0.911198 -0.955826 -0.635432 -0.745225 0.202156
0.480618 1.832130 -0.870821 -0.635432 -0.745225 0.202156
0.362915 -1.985489 0.064791 0.009520 0.998081 -0.061179
0.580311 -1.921831 1.137142 0.009520 0.998081 -0.061179
1.121680 -1.990395 0.102823 0.009520 0.998081 -0.061179
-0.155493 0.425872 0.423342 0.840557 0.017641 -0.541437
-0.242533 -1.124381 0.237706 0.840557 0.017641 -0.541437
-0.664068 -0.312546 -0.390257 0.840557 0.017641 -0.541437
1.608463 -1.524566 0.445069 -0.523689 0.786956 -0.326268
1.121680 -1.990395 0.102823 -0.523689 0.786956 -0.326268
0.580311 -1.921831 1.137142 -0.523689 0.786956 -0.326268
0.848681 0.768445 0.590204 0.303974 -0.494361 -0.814375
-0.155493 0.425872 0.423342 0.303974 -0.494361 -0.814375
-0.186180 1.544672 -0.267273 0.303974 -0.494361 -0.814375
-0.350072 1.142031 -1.849742 0.933264 -0.303958 0.191384
-1.042560 -0.163690 -0.546661 0.933264 -0.303958 0.191384
-0.834985 -0.123234 -1.494622 0.933264 -0.303958 0.191384
0.362915 -1.985489 0.064791 0.823298 0.554611 0.120778
-0.242533 -1.124381 0.237706 0.823298 0.554611 0.120778
-0.168715 -1.411959 1.055074 0.823298 0.554611 0.120778
1.248311 -0.085419 -1.626614 -0.994653 0.047099 0.091909
1.196803 -0.578131 -1.931544 -0.994653 0.047099 0.091909
1.343688 -0.295095 -0.486969 -0.994653 0.047099 0.091909
-0.186180 1.544672 -0.267273 -0.151584 -0.816880 -0.556534
0.480618 1.832130 -0.870821 -0.151584 -0.816880 -0.556534
0.848681 0.768445 0.590204 -0.151584 -0.816880 -0.556534
0.471843 1.689098 -1.825566 -0.358434 -0.922764 0.141535
0.480618 1.832130 -0.870821 -0.358434 -0.922764 0.141535
0.001480 1.930476 -1.443037 -0.358434 -0.922764 0.141535
-0.155493 0.425872 0.423342 0.810641 0.024541 -0.585029
0.160665 -0.897082 0.805930 0.810641 0.024541 -0.585029
-0.242533 -1.124381 0.237706 0.810641 0.024541 -0.585029
0.001480 1.930476 -1.443037 0.765841 -0.009818 -0.642955
0.480618 1.832130 -0.870821 0.765841 -0.009818 -0.642955
-0.350072 1.142031 -1.849742 0.765841 -0.009818 -0.642955
-0.186180 1.544672 -0.267273 0.892276 -0.450937 0.022325
-1.042560 -0.163690 -0.546661 0.892276 -0.450937 0.022325
-0.350072 1.142031 -1.849742 0.892276 -0.450937 0.022325
1.196803 -0.578131 -1.931544 -0.364758 0.428897 0.826437
0.120308 -1.517961 -1.918924 -0.364758 0.428897 0.826437
0.727670 -1.198531 -1.816632 -0.364758 0.428897 0.826437
1.608463 -1.524566 0.445069 -0.653459 0.135722 0.744696
1.004079 -1.463801 -0.096343 -0.653459 0.135722 0.744696
1.121680 -1.990395 0.102823 -0.653459 0.135722 0.744696
1.196803 -0.578131 -1.931544 0.028182 -0.037681 0.998892
0.996427 1.123519 -1.861701 0.028182 -0.037681 0.998892
0.471843 1.689098 -1.825566 0.028182 -0.037681 0.998892
0.590555 -0.849585 -1.550917 0.032335 0.464516 -0.884974
0.120308 -1.517961 -1.918924 0.032335 0.464516 -0.884974
-0.156246 -0.571692 -1.432340 0.032335 0.464516 -0.884974
0.001480 1.930476 -1.443037 0.341343 -0.546627 0.764646
-0.350072 1.142031 -1.849742 0.341343 -0.546627 0.764646
0.471843 1.689098 -1.825566 0.341343 -0.546627 0.764646
0.580311 -1.921831 1.137142 -0.548485 -0.035813 -0.835393
0.471542 -0.956769 1.167184 -0.548485 -0.035813 -0.835393
1.608463 -1.524566 0.445069 -0.548485 -0.035813 -0.835393
0.471542 -0.956769 1.167184 0.132036 -0.953438 -0.271152
0.160665 -0.897082 0.805930 0.132036 -0.953438 -0.271152
0.769808 -0.666005 0.290023 0.132036 -0.953438 -0.271152
1.608463 -1.524566 0.445069 -0.610635 -0.483171 0.627431
0.769808 -0.666005 0.290023 -0.610635 -0.483171 0.627431
1.004079 -1.463801 -0.096343 -0.610635 -0.483171 0.627431
1.218186 -1.239190 -0.708166 -0.446061 0.837660 0.315207
0.236657 -1.568402 -1.222286 -0.446061 0.837660 0.315207
0.362915 -1.985489 0.064791 -0.446061 0.837660 0.315207
0.769808 -0.666005 0.290023 -0.832048 0.228983 -0.505236
1.343688 -0.295095 -0.486969 -0.832048 0.228983 -0.505236
1.218186 -1.239190 -0.708166 -0.832048 0.228983 -0.505236
0.362915 -1.985489 0.064791 -0.618810 0.782356 0.070665
1.004079 -1.463801 -0.096343 -0.618810 0.782356 0.070665
1.218186 -1.239190 -0.708166 -0.618810 0.782356 0.070665
0.031394 -1.183855 1.125286 0.194282 0.128886 -0.972442
0.580311 -1.921831 1.137142 0.194282 0.128886 -0.972442
-0.168715 -1.411959 1.055074 0.194282 0.128886 -0.972442
-0.621211 -0.513775 -1.938484 -0.003211 0.017105 0.999849
0.120308 -1.517961 -1.918924 -0.003211 0.017105 0.999849
1.196803 -0.578131 -1.931544 -0.003211 0.017105 0.999849
0.590555 -0.849585 -1.550917 0.255911 0.294898 0.920622
-0.156246 -0.571692 -1.432340 0.255911 0.294898 0.920622
0.236657 -1.568402 -1.222286 0.255911 0.294898 0.920622
0.160665 -0.897082 0.805930 0.434580 -0.750446 -0.497967
0.471542 -0.956769 1.167184 0.434580 -0.750446 -0.497967
0.031394 -1.183855 1.125286 0.434580 -0.750446 -0.497967
1.248311 -0.085419 -1.626614 -0.972851 0.199063 0.118043
1.343688 -0.295095 -0.486969 -0.972851 0.199063 0.118043
1.533629 0.911198 -0.955826 -0.972851 0.199063 0.118043
1.248311 -0.085419 -1.626614 -0.926154 -0.123682 0.356289
0.996427 1.123519 -1.861701 -0.926154 -0.123682 0.356289
1.196803 -0.578131 -1.931544 -0.926154 -0.123682 0.356289
0.031394 -1.183855 1.125286 0.074515 0.039416 -0.996441
0.471542 -0.956769 1.167184 0.074515 0.039416 -0.996441
0.580311 -1.921831 1.137142 0.074515 0.039416 -0.996441
0.580311 -1.921831 1.137142 0.567331 0.807211 -0.162932
0.362915 -1.985489 0.064791 0.567331 0.807211 -0.162932
-0.168715 -1.411959 1.055074 0.567331 0.807211 -0.162932
-0.242533 -1.124381 0.237706 0.763145 -0.584927 -0.274718
0.031394 -1.183855 1.125286 0.763145 -0.584927 -0.274718
-0.168715 -1.411959 1.055074 0.763145 -0.584927 -0.274718
-0.156246 -0.571692 -1.432340 0.546565 0.835363 0.058611
-0.834985 -0.123234 -1.494622 0.546565 0.835363 0.058611
-0.664068 -0.312546 -0.390257 0.546565 0.835363 0.058611
-0.621211 -0.513775 -1.938484 -0.005674 -0.052591 0.998600
1.196803 -0.578131 -1.931544 -0.005674 -0.052591 0.998600
-0.350072 1.142031 -1.849742 -0.005674 -0.052591 0.998600
-0.460007 -1.468464 -0.752609 0.726646 0.583673 -0.362369
-0.242533 -1.124381 0.237706 0.726646 0.583673 -0.362369
0.362915 -1.985489 0.064791 0.726646 0.583673 -0.362369
-0.242533 -1.124381 0.237706 0.731049 -0.627629 -0.267674
0.160665 -0.897082 0.805930 0.731049 -0.627629 -0.267674
0.031394 -1.183855 1.125286 0.731049 -0.627629 -0.267674
1.343688 -0.295095 -0.486969 -0.990457 0.113270 0.078517
1.196803 -0.578131 -1.931544 -0.990457 0.113270 0.078517
1.218186 -1.239190 -0.708166 -0.990457 0.113270 0.078517
0.848681 0.768445 0.590204 -0.828815 0.157902 -0.536780
1.343688 -0.295095 -0.486969 -0.828815 0.157902 -0.536780
0.769808 -0.666005 0.290023 -0.828815 0.157902 -0.536780
-0.621211 -0.513775 -1.938484 0.530216 0.746700 -0.401635
-0.834985 -0.123234 -1.494622 0.530216 0.746700 -0.401635
-0.156246 -0.571692 -1.432340 0.530216 0.746700 -0.401635
0.471843 1.689098 -1.825566 0.001399 -0.046246 0.998929
-0.350072 1.142031 -1.849742 0.001399 -0.046246 0.998929
1.196803 -0.578131 -1.931544 0.001399 -0.046246 0.998929
0.996427 1.123519 -1.861701 -0.725385 -0.679739 0.108499
0.480618 1.832130 -0.870821 -0.725385 -0.679739 0.108499
0.471843 1.689098 -1.825566 -0.725385 -0.679739 0.108499
-0.186180 1.544672 -0.267273 0.903020 -0.207448 -0.376192
-0.155493 0.425872 0.423342 0.903020 -0.207448 -0.376192
-0.664068 -0.312546 -0.390257 0.903020 -0.207448 -0.376192
3 0 1 2
3 3 4 5
3 6 7 8
3 9 10 11
3 12 13 14
3 15 16 17
3 18 19 20
3 21 22 23
3 24 25 26
3 27 28 29
3 30 31 32
3 33 34 35
3 36 37 38
3 39 40 41
3 42 43 44
3 45 46 47
3 48 49 50
3 51 52 53
3 54 55 56
3 57 58 59
3 60 61 62
3 63 64 65
3 66 67 68
3 69 70 71
3 72 73 74
3 75 76 77
3 78 79 80
3 81 82 83
3 84 85 86
3 87 88 89
3 90 91 92
3 93 94 95
3 96 97 98
3 99 100 101
3 102 103 104
3 105 106 107
3 108 109 110
3 111 112 113
3 114 115 116
3 117 118 119
3 120 121 122
3 123 124 125
3 126 127 128
3 129 130 131
3 132 133 134
3 135 136 137
3 138 139 140
3 141 142 143
3 144 145 146
3 147 148 149
3 150 151 152
3 153 154 155
3 156 157 158
3 159 160 161
3 162 163 164
3 165 166 167
3 168 169 170
3 171 172 173
3 174 175 176
3 177 178 179
3 180 181 182
3 183 184 185
3 186 187 188
3 189 190 191
