ply
format ascii 1.0
comment Created by Blender 2.91.2 - www.blender.org
element vertex 54
property float x
property float y
property float z
property float nx
property float ny
property float nz
property float s
property float t
element face 48
property list uchar uint vertex_indices
end_header
-2.500000 0.000000 2.500000 -1.000000 0.000000 0.000000 0.625000 0.125000
-2.500000 2.500000 0.000000 -1.000000 0.000000 0.000000 0.500000 0.250000
-2.500000 0.000000 0.000000 -1.000000 0.000000 0.000000 0.500000 0.125000
0.000000 2.500000 2.500000 0.000000 1.000000 -0.000000 0.625000 0.375000
2.500000 2.500000 0.000000 0.000000 1.000000 -0.000000 0.500000 0.500000
0.000000 2.500000 0.000000 0.000000 1.000000 -0.000000 0.500000 0.375000
2.500000 0.000000 2.500000 1.000000 0.000000 -0.000000 0.625000 0.625000
2.500000 -2.500000 0.000000 1.000000 0.000000 -0.000000 0.500000 0.750000
2.500000 0.000000 0.000000 1.000000 0.000000 -0.000000 0.500000 0.625000
0.000000 -2.500000 2.500000 0.000000 -1.000000 0.000000 0.625000 0.875000
-2.500000 -2.500000 0.000000 0.000000 -1.000000 0.000000 0.500000 1.000000
0.000000 -2.500000 0.000000 0.000000 -1.000000 0.000000 0.500000 0.875000
2.500000 0.000000 -2.500000 0.000000 0.000000 -1.000000 0.375000 0.625000
0.000000 -2.500000 -2.500000 0.000000 0.000000 -1.000000 0.250000 0.750000
0.000000 0.000000 -2.500000 0.000000 0.000000 -1.000000 0.250000 0.625000
-2.500000 0.000000 2.500000 0.000000 0.000000 1.000000 0.875000 0.625000
0.000000 -2.500000 2.500000 0.000000 0.000000 1.000000 0.750000 0.750000
0.000000 0.000000 2.500000 0.000000 0.000000 1.000000 0.750000 0.625000
-2.500000 -2.500000 -2.500000 0.000000 -1.000000 0.000000 0.375000 1.000000
0.000000 -2.500000 -2.500000 0.000000 -1.000000 0.000000 0.375000 0.875000
2.500000 -2.500000 -2.500000 1.000000 0.000000 -0.000000 0.375000 0.750000
2.500000 0.000000 -2.500000 1.000000 0.000000 -0.000000 0.375000 0.625000
2.500000 2.500000 -2.500000 0.000000 1.000000 -0.000000 0.375000 0.500000
0.000000 2.500000 -2.500000 0.000000 1.000000 -0.000000 0.375000 0.375000
-2.500000 2.500000 -2.500000 -1.000000 0.000000 0.000000 0.375000 0.250000
-2.500000 0.000000 -2.500000 -1.000000 0.000000 0.000000 0.375000 0.125000
-2.500000 -2.500000 0.000000 -1.000000 0.000000 0.000000 0.500000 0.000000
-2.500000 -2.500000 -2.500000 -1.000000 0.000000 0.000000 0.375000 0.000000
2.500000 2.500000 0.000000 1.000000 0.000000 -0.000000 0.500000 0.500000
2.500000 2.500000 -2.500000 1.000000 0.000000 -0.000000 0.375000 0.500000
-2.500000 2.500000 2.500000 0.000000 0.000000 1.000000 0.875000 0.500000
0.000000 2.500000 2.500000 0.000000 0.000000 1.000000 0.750000 0.500000
2.500000 2.500000 -2.500000 0.000000 0.000000 -1.000000 0.375000 0.500000
0.000000 2.500000 -2.500000 0.000000 0.000000 -1.000000 0.250000 0.500000
2.500000 2.500000 2.500000 1.000000 0.000000 -0.000000 0.625000 0.500000
-2.500000 -2.500000 2.500000 -1.000000 0.000000 0.000000 0.625000 0.000000
-2.500000 0.000000 -2.500000 0.000000 0.000000 -1.000000 0.125000 0.625000
-2.500000 2.500000 -2.500000 0.000000 0.000000 -1.000000 0.125000 0.500000
2.500000 0.000000 2.500000 0.000000 0.000000 1.000000 0.625000 0.625000
2.500000 2.500000 2.500000 0.000000 0.000000 1.000000 0.625000 0.500000
-2.500000 2.500000 0.000000 0.000000 1.000000 -0.000000 0.500000 0.250000
-2.500000 2.500000 -2.500000 0.000000 1.000000 -0.000000 0.375000 0.250000
2.500000 -2.500000 0.000000 0.000000 -1.000000 0.000000 0.500000 0.750000
2.500000 -2.500000 -2.500000 0.000000 -1.000000 0.000000 0.375000 0.750000
2.500000 -2.500000 2.500000 0.000000 0.000000 1.000000 0.625000 0.750000
-2.500000 -2.500000 -2.500000 0.000000 0.000000 -1.000000 0.125000 0.750000
2.500000 -2.500000 2.500000 0.000000 -1.000000 0.000000 0.625000 0.750000
-2.500000 2.500000 2.500000 0.000000 1.000000 -0.000000 0.625000 0.250000
-2.500000 2.500000 2.500000 -1.000000 0.000000 0.000000 0.625000 0.250000
2.500000 2.500000 2.500000 0.000000 1.000000 -0.000000 0.625000 0.500000
2.500000 -2.500000 2.500000 1.000000 0.000000 0.000000 0.625000 0.750000
-2.500000 -2.500000 2.500000 0.000000 -1.000000 0.000000 0.625000 1.000000
2.500000 -2.500000 -2.500000 0.000000 0.000000 -1.000000 0.375000 0.750000
-2.500000 -2.500000 2.500000 0.000000 -0.000000 1.000000 0.875000 0.750000
3 0 1 2
3 3 4 5
3 6 7 8
3 9 10 11
3 12 13 14
3 15 16 17
3 11 18 19
3 8 20 21
3 5 22 23
3 2 24 25
3 26 25 27
3 28 21 29
3 30 17 31
3 32 14 33
3 34 8 28
3 35 2 26
3 33 36 37
3 31 38 39
3 40 23 41
3 42 19 43
3 17 44 38
3 14 45 36
3 46 11 42
3 47 5 40
3 0 48 1
3 3 49 4
3 6 50 7
3 9 51 10
3 12 52 13
3 15 53 16
3 11 10 18
3 8 7 20
3 5 4 22
3 2 1 24
3 26 2 25
3 28 8 21
3 30 15 17
3 32 12 14
3 34 6 8
3 35 0 2
3 33 14 36
3 31 17 38
3 40 5 23
3 42 11 19
3 17 16 44
3 14 13 45
3 46 9 11
3 47 3 5
